<svg xmlns="http://www.w3.org/2000/svg" viewBox="0 0 16 15.99"><g id="レイヤー_2" data-name="レイヤー 2"><g id="レイヤー_1-2" data-name="レイヤー 1"><path id="cart" d="M15.77,3.17a1,1,0,0,0-.8-.38H3.83l-.35-1.2A1.83,1.83,0,0,0,2.1.31L.72,0H.59A.61.61,0,0,0,0,.47.6.6,0,0,0,.1.92a.59.59,0,0,0,.37.26l1.38.29a.67.67,0,0,1,.49.46l2.48,8.51-.05,0a1.86,1.86,0,0,0-.7.72,2.06,2.06,0,0,0-.23.75h0v.36h0a2.09,2.09,0,0,0,.14.56,2,2,0,0,0,.71.86,2.2,2.2,0,0,0,.56.26,1.58,1.58,0,0,0-.12.15,1.2,1.2,0,0,0,.32,1.66,1.17,1.17,0,0,0,.66.2,1.19,1.19,0,0,0,.47-.09,1.21,1.21,0,0,0,.52-.43,1.15,1.15,0,0,0,.11-1.13A1.05,1.05,0,0,0,7,14.05h4.69l-.07.08A1.2,1.2,0,0,0,12,15.79a1.2,1.2,0,0,0,.67.2,1.27,1.27,0,0,0,.47-.09,1.21,1.21,0,0,0,.52-.43,1.22,1.22,0,0,0,.11-1.13,1.05,1.05,0,0,0-.17-.29h.3a.6.6,0,0,0,0-1.19H5.78a.8.8,0,0,1-.3-.06.74.74,0,0,1-.33-.28.71.71,0,0,1-.13-.4.73.73,0,0,1,.16-.46,1,1,0,0,1,.19-.17,1.25,1.25,0,0,1,.29-.11l8.13-1.32a1.49,1.49,0,0,0,.78-.39A1.39,1.39,0,0,0,15,8.91L16,4V4h0a1.11,1.11,0,0,0,0-.19A1,1,0,0,0,15.77,3.17Zm-8.19,6a.41.41,0,0,1-.51-.27L5.8,4.76a.41.41,0,0,1,.78-.24L7.85,8.67A.41.41,0,0,1,7.58,9.18Zm2.45,0a.41.41,0,0,1-.51-.27L8.25,4.76A.41.41,0,1,1,9,4.52L10.3,8.67A.42.42,0,0,1,10,9.18Zm2.45,0A.41.41,0,0,1,12,8.91L10.69,4.76A.42.42,0,0,1,11,4.25a.41.41,0,0,1,.52.27l1.27,4.15A.42.42,0,0,1,12.48,9.18Z"/></g></g></svg>