<svg xmlns="http://www.w3.org/2000/svg" viewBox="0 0 16 16"><g id="レイヤー_2" data-name="レイヤー 2"><g id="レイヤー_1-2" data-name="レイヤー 1"><path id="circle-ex" d="M8,0a7.77,7.77,0,0,1,4,1.08A8,8,0,0,1,14.92,4,7.77,7.77,0,0,1,16,8a7.77,7.77,0,0,1-1.08,4A8,8,0,0,1,12,14.92,7.77,7.77,0,0,1,8,16a7.77,7.77,0,0,1-4-1.08A8,8,0,0,1,1.08,12,7.77,7.77,0,0,1,0,8,7.77,7.77,0,0,1,1.08,4,8,8,0,0,1,4,1.08,7.77,7.77,0,0,1,8,0ZM8,14.45a6.29,6.29,0,0,0,3.23-.87,6.46,6.46,0,0,0,2.35-2.35,6.43,6.43,0,0,0,0-6.46,6.46,6.46,0,0,0-2.35-2.35,6.43,6.43,0,0,0-6.46,0A6.46,6.46,0,0,0,2.42,4.77a6.43,6.43,0,0,0,0,6.46,6.46,6.46,0,0,0,2.35,2.35A6.29,6.29,0,0,0,8,14.45ZM9.35,11.1a1.27,1.27,0,0,0-.4-.95,1.31,1.31,0,0,0-1.9,0,1.27,1.27,0,0,0-.4.95,1.3,1.3,0,0,0,.4,1,1.33,1.33,0,0,0,1.9,0A1.3,1.3,0,0,0,9.35,11.1ZM6.74,4.29A.36.36,0,0,1,6.82,4a.45.45,0,0,1,.31-.11H8.87A.45.45,0,0,1,9.18,4a.36.36,0,0,1,.08.31l-.2,4.39a.6.6,0,0,1-.14.24A.37.37,0,0,1,8.68,9H7.32a.37.37,0,0,1-.24-.11.6.6,0,0,1-.14-.24Z"/></g></g></svg>