<svg xmlns="http://www.w3.org/2000/svg" xmlns:xlink="http://www.w3.org/1999/xlink"><symbol viewBox="0 0 16 8.05" id="src--assets--svg--icons--arrow-left" xmlns="http://www.w3.org/2000/svg"><g id="aレイヤー_2" data-name="レイヤー 2"><g id="aレイヤー_1-2" data-name="レイヤー 1"><path id="aarrow-right" d="M3.72.14A.35.35,0,0,1,4.17,0a.39.39,0,0,1,.27.39V3H15.57a.42.42,0,0,1,.3.13.4.4,0,0,1,.13.31V4.62a.41.41,0,0,1-.13.29.37.37,0,0,1-.3.15H4.44V7.62a.4.4,0,0,1-.27.4.37.37,0,0,1-.45-.11L.11,4.33A.48.48,0,0,1,0,4a.53.53,0,0,1,.11-.31Z"/></g></g></symbol><symbol viewBox="0 0 16 8.05" id="src--assets--svg--icons--arrow-right" xmlns="http://www.w3.org/2000/svg"><g id="bレイヤー_2" data-name="レイヤー 2"><g id="bレイヤー_1-2" data-name="レイヤー 1"><path id="barrow-right" d="M12.28,7.91a.37.37,0,0,1-.45.11.4.4,0,0,1-.27-.4V5H.43a.38.38,0,0,1-.3-.13A.38.38,0,0,1,0,4.59V3.43a.42.42,0,0,1,.13-.29A.39.39,0,0,1,.43,3H11.56V.43A.39.39,0,0,1,11.83,0a.35.35,0,0,1,.45.1l3.61,3.58A.53.53,0,0,1,16,4a.48.48,0,0,1-.11.3Z"/></g></g></symbol><symbol viewBox="0 0 11.74 16" id="src--assets--svg--icons--beginner" xmlns="http://www.w3.org/2000/svg"><g id="cレイヤー_2" data-name="レイヤー 2"><g id="cレイヤー_1-2" data-name="レイヤー 1"><path id="cbeginner" d="M5.87,3.75,2.4.4a1.41,1.41,0,0,0-2.4,1V10A2.1,2.1,0,0,0,.65,11.5l4.23,4.1a1.42,1.42,0,0,0,2,0l4.24-4.1A2.14,2.14,0,0,0,11.74,10V1.42A1.42,1.42,0,0,0,10.87.11,1.4,1.4,0,0,0,9.34.4Zm4.8,6.08a.89.89,0,0,1-.27.63L5.87,14.84V5.42l.86-.83L9.92,1.5a.44.44,0,0,1,.75.31Z"/></g></g></symbol><symbol viewBox="0 0 16 15.99" id="src--assets--svg--icons--cart" xmlns="http://www.w3.org/2000/svg"><g id="dレイヤー_2" data-name="レイヤー 2"><g id="dレイヤー_1-2" data-name="レイヤー 1"><path id="dcart" d="M15.77,3.17a1,1,0,0,0-.8-.38H3.83l-.35-1.2A1.83,1.83,0,0,0,2.1.31L.72,0H.59A.61.61,0,0,0,0,.47.6.6,0,0,0,.1.92a.59.59,0,0,0,.37.26l1.38.29a.67.67,0,0,1,.49.46l2.48,8.51-.05,0a1.86,1.86,0,0,0-.7.72,2.06,2.06,0,0,0-.23.75h0v.36h0a2.09,2.09,0,0,0,.14.56,2,2,0,0,0,.71.86,2.2,2.2,0,0,0,.56.26,1.58,1.58,0,0,0-.12.15,1.2,1.2,0,0,0,.32,1.66,1.17,1.17,0,0,0,.66.2,1.19,1.19,0,0,0,.47-.09,1.21,1.21,0,0,0,.52-.43,1.15,1.15,0,0,0,.11-1.13A1.05,1.05,0,0,0,7,14.05h4.69l-.07.08A1.2,1.2,0,0,0,12,15.79a1.2,1.2,0,0,0,.67.2,1.27,1.27,0,0,0,.47-.09,1.21,1.21,0,0,0,.52-.43,1.22,1.22,0,0,0,.11-1.13,1.05,1.05,0,0,0-.17-.29h.3a.6.6,0,0,0,0-1.19H5.78a.8.8,0,0,1-.3-.06.74.74,0,0,1-.33-.28.71.71,0,0,1-.13-.4.73.73,0,0,1,.16-.46,1,1,0,0,1,.19-.17,1.25,1.25,0,0,1,.29-.11l8.13-1.32a1.49,1.49,0,0,0,.78-.39A1.39,1.39,0,0,0,15,8.91L16,4V4h0a1.11,1.11,0,0,0,0-.19A1,1,0,0,0,15.77,3.17Zm-8.19,6a.41.41,0,0,1-.51-.27L5.8,4.76a.41.41,0,0,1,.78-.24L7.85,8.67A.41.41,0,0,1,7.58,9.18Zm2.45,0a.41.41,0,0,1-.51-.27L8.25,4.76A.41.41,0,1,1,9,4.52L10.3,8.67A.42.42,0,0,1,10,9.18Zm2.45,0A.41.41,0,0,1,12,8.91L10.69,4.76A.42.42,0,0,1,11,4.25a.41.41,0,0,1,.52.27l1.27,4.15A.42.42,0,0,1,12.48,9.18Z"/></g></g></symbol><symbol viewBox="0 0 16 16" id="src--assets--svg--icons--circle-ex" xmlns="http://www.w3.org/2000/svg"><g id="eレイヤー_2" data-name="レイヤー 2"><g id="eレイヤー_1-2" data-name="レイヤー 1"><path id="ecircle-ex" d="M8,0a7.77,7.77,0,0,1,4,1.08A8,8,0,0,1,14.92,4,7.77,7.77,0,0,1,16,8a7.77,7.77,0,0,1-1.08,4A8,8,0,0,1,12,14.92,7.77,7.77,0,0,1,8,16a7.77,7.77,0,0,1-4-1.08A8,8,0,0,1,1.08,12,7.77,7.77,0,0,1,0,8,7.77,7.77,0,0,1,1.08,4,8,8,0,0,1,4,1.08,7.77,7.77,0,0,1,8,0ZM8,14.45a6.29,6.29,0,0,0,3.23-.87,6.46,6.46,0,0,0,2.35-2.35,6.43,6.43,0,0,0,0-6.46,6.46,6.46,0,0,0-2.35-2.35,6.43,6.43,0,0,0-6.46,0A6.46,6.46,0,0,0,2.42,4.77a6.43,6.43,0,0,0,0,6.46,6.46,6.46,0,0,0,2.35,2.35A6.29,6.29,0,0,0,8,14.45ZM9.35,11.1a1.27,1.27,0,0,0-.4-.95,1.31,1.31,0,0,0-1.9,0,1.27,1.27,0,0,0-.4.95,1.3,1.3,0,0,0,.4,1,1.33,1.33,0,0,0,1.9,0A1.3,1.3,0,0,0,9.35,11.1ZM6.74,4.29A.36.36,0,0,1,6.82,4a.45.45,0,0,1,.31-.11H8.87A.45.45,0,0,1,9.18,4a.36.36,0,0,1,.08.31l-.2,4.39a.6.6,0,0,1-.14.24A.37.37,0,0,1,8.68,9H7.32a.37.37,0,0,1-.24-.11.6.6,0,0,1-.14-.24Z"/></g></g></symbol><symbol viewBox="0 0 8.89 16" id="src--assets--svg--icons--facebook" xmlns="http://www.w3.org/2000/svg"><g id="fレイヤー_2" data-name="レイヤー 2"><g id="fレイヤー_1-2" data-name="レイヤー 1"><path id="ffacebook" d="M8.89,2.78H6.35c-.3,0-.64.4-.64.92V5.54H8.89L8.41,8.15H5.71V16h-3V8.15H0V5.54H2.72V4A3.77,3.77,0,0,1,6.35,0H8.89Z"/></g></g></symbol><symbol viewBox="0 0 32 31.81" id="src--assets--svg--icons--facebook-circle" xmlns="http://www.w3.org/2000/svg"><g id="gレイヤー_2" data-name="レイヤー 2"><g id="gレイヤー_1-2" data-name="レイヤー 1"><path id="gfacebook" d="M18.5,31.81V20.62h3.73L22.94,16H18.5V13a2.31,2.31,0,0,1,2.61-2.5h2V6.56a25,25,0,0,0-3.59-.31c-3.65,0-6,2.21-6,6.23V16H9.44v4.62H13.5V31.81a16,16,0,1,1,5,0Z"/></g></g></symbol><symbol viewBox="0 0 15.99 16" id="src--assets--svg--icons--instagram" xmlns="http://www.w3.org/2000/svg"><g id="hレイヤー_2" data-name="レイヤー 2"><g id="hレイヤー_1-2" data-name="レイヤー 1"><path id="hinstagram" d="M8,1.44c2.14,0,2.39,0,3.23.05a4.33,4.33,0,0,1,1.49.27,2.67,2.67,0,0,1,1.52,1.52,4.32,4.32,0,0,1,.27,1.48c0,.85.05,1.1.05,3.24s0,2.39-.05,3.23a4.26,4.26,0,0,1-.27,1.48,2.49,2.49,0,0,1-.6.92,2.57,2.57,0,0,1-.92.6,4.51,4.51,0,0,1-1.48.28c-.85,0-1.1,0-3.24,0s-2.39,0-3.23,0a4.44,4.44,0,0,1-1.48-.28,2.37,2.37,0,0,1-.92-.6,2.41,2.41,0,0,1-.6-.91,4.58,4.58,0,0,1-.28-1.49c0-.84,0-1.1,0-3.23s0-2.39,0-3.23a4.52,4.52,0,0,1,.28-1.49,2.55,2.55,0,0,1,.59-.92,2.66,2.66,0,0,1,.92-.6,4.39,4.39,0,0,1,1.49-.27c.84,0,1.09-.05,3.23-.05ZM8,0C5.83,0,5.56,0,4.7.05A5.85,5.85,0,0,0,2.76.42a4.08,4.08,0,0,0-1.42.92A4.17,4.17,0,0,0,.42,2.76,5.61,5.61,0,0,0,.05,4.7C0,5.56,0,5.83,0,8s0,2.45.05,3.3a5.61,5.61,0,0,0,.37,1.94,4,4,0,0,0,.92,1.42,3.94,3.94,0,0,0,1.42.92A5.61,5.61,0,0,0,4.7,16C5.55,16,5.83,16,8,16s2.44,0,3.3-.05a5.61,5.61,0,0,0,1.94-.37,3.9,3.9,0,0,0,1.41-.92,3.81,3.81,0,0,0,.92-1.42A5.82,5.82,0,0,0,16,11.3c0-.85,0-1.12,0-3.3s0-2.44,0-3.29a5.77,5.77,0,0,0-.38-1.94,3.63,3.63,0,0,0-.91-1.43A4,4,0,0,0,13.24.42,6.12,6.12,0,0,0,11.3.05C10.45,0,10.17,0,8,0ZM8,3.89A4.11,4.11,0,1,0,12.11,8,4.11,4.11,0,0,0,8,3.89Zm0,6.78A2.67,2.67,0,1,1,10.67,8,2.67,2.67,0,0,1,8,10.67Zm4.27-7.9a1,1,0,1,0,1,1A1,1,0,0,0,12.27,2.77Z"/></g></g></symbol><symbol viewBox="0 0 16 16" id="src--assets--svg--icons--list" xmlns="http://www.w3.org/2000/svg"><g id="iレイヤー_2" data-name="レイヤー 2"><g id="iレイヤー_1-2" data-name="レイヤー 1"><path id="ilist" d="M12.63,0H3.37A3.37,3.37,0,0,0,0,3.37v9.26A3.37,3.37,0,0,0,3.37,16h9.26A3.37,3.37,0,0,0,16,12.63V3.37A3.37,3.37,0,0,0,12.63,0Zm1.69,12.63a1.69,1.69,0,0,1-1.69,1.69H3.37a1.69,1.69,0,0,1-1.69-1.69V3.37A1.69,1.69,0,0,1,3.37,1.68h9.26a1.69,1.69,0,0,1,1.69,1.69ZM3.37,5.89h.84V5.05H3.37Zm8.84-.84H5.47a.42.42,0,0,0-.42.42.42.42,0,0,0,.42.42h6.74a.42.42,0,0,0,.42-.42A.42.42,0,0,0,12.21,5.05ZM3.37,8.42h.84V7.58H3.37Zm8.84-.84H5.47a.42.42,0,0,0,0,.84h6.74a.42.42,0,0,0,0-.84ZM3.37,11h.84v-.84H3.37Zm8.84-.84H5.47a.42.42,0,0,0-.42.42.42.42,0,0,0,.42.42h6.74a.42.42,0,0,0,.42-.42A.42.42,0,0,0,12.21,10.11Z"/></g></g></symbol><symbol viewBox="0 0 14 16" id="src--assets--svg--icons--lock" xmlns="http://www.w3.org/2000/svg"><g id="jレイヤー_2" data-name="レイヤー 2"><g id="jレイヤー_1-2" data-name="レイヤー 1"><path id="jlock" d="M13.5,16H.5a.5.5,0,0,1-.5-.5v-8A.5.5,0,0,1,.5,7H2V5A5,5,0,0,1,12,5V7h1.5a.5.5,0,0,1,.5.5v8A.5.5,0,0,1,13.5,16ZM10,4.75A2.88,2.88,0,0,0,7,2,2.88,2.88,0,0,0,4,4.75V7h6Z"/></g></g></symbol><symbol viewBox="0 0 16 12.3" id="src--assets--svg--icons--mail" xmlns="http://www.w3.org/2000/svg"><g id="kレイヤー_2" data-name="レイヤー 2"><g id="kレイヤー_1-2" data-name="レイヤー 1"><path id="kmail" d="M16,1.81v8.71a1.82,1.82,0,0,1-.08.52L10.67,6.46ZM8,7a1,1,0,0,0,.63-.24l7-6.09A1.75,1.75,0,0,0,14.22,0H1.78A1.75,1.75,0,0,0,.39.67l7,6.09A1,1,0,0,0,8,7ZM0,1.81v8.71A1.82,1.82,0,0,0,.08,11L5.33,6.46ZM9.36,7.6a2.07,2.07,0,0,1-2.72,0l-.46-.41L.72,12a1.77,1.77,0,0,0,1.06.35H14.22A1.77,1.77,0,0,0,15.28,12L9.82,7.19Z"/></g></g></symbol><symbol viewBox="0 0 11.99 16" id="src--assets--svg--icons--marker" xmlns="http://www.w3.org/2000/svg"><g id="lレイヤー_2" data-name="レイヤー 2"><g id="lレイヤー_1-2" data-name="レイヤー 1"><path id="lmarker" d="M6,16a80.83,80.83,0,0,0,5.34-7.42A5.81,5.81,0,0,0,10.2,1.74a6,6,0,0,0-8.41,0A5.81,5.81,0,0,0,.66,8.58,79.38,79.38,0,0,0,6,16ZM6,2.33A3.62,3.62,0,1,1,2.38,6,3.62,3.62,0,0,1,6,2.33Z"/></g></g></symbol><symbol viewBox="0 0 16 16" id="src--assets--svg--icons--plus" xmlns="http://www.w3.org/2000/svg"><g id="mレイヤー_2" data-name="レイヤー 2"><g id="mレイヤー_1-2" data-name="レイヤー 1"><path id="mplus" d="M16,7.32V8.7H8.68V16H7.32V8.7H0V7.32H7.32V0H8.68V7.32Z"/></g></g></symbol><symbol viewBox="0 0 16 15.22" id="src--assets--svg--icons--star" xmlns="http://www.w3.org/2000/svg"><g id="nレイヤー_2" data-name="レイヤー 2"><g id="nレイヤー_1-2" data-name="レイヤー 1"><path id="nstar" d="M16,5.81l-4,3.9.94,5.51L8,12.62l-4.94,2.6L4,9.71,0,5.81,5.53,5,8,0l2.47,5,5.53.8Z"/></g></g></symbol><symbol viewBox="0 0 16 16" id="src--assets--svg--icons--tag" xmlns="http://www.w3.org/2000/svg"><g id="oレイヤー_2" data-name="レイヤー 2"><g id="oレイヤー_1-2" data-name="レイヤー 1"><path id="otag" d="M15.24,0H9.12A2.13,2.13,0,0,0,7.81.54L.22,8.13a.78.78,0,0,0,0,1.08l6.57,6.57a.78.78,0,0,0,1.08,0l7.59-7.59A2.13,2.13,0,0,0,16,6.88V.76A.76.76,0,0,0,15.24,0ZM11.41,6.12a1.53,1.53,0,1,1,1.53-1.53A1.54,1.54,0,0,1,11.41,6.12Z"/></g></g></symbol><symbol viewBox="0 0 16 16" id="src--assets--svg--icons--tel" xmlns="http://www.w3.org/2000/svg"><g id="pレイヤー_2" data-name="レイヤー 2"><g id="pレイヤー_1-2" data-name="レイヤー 1"><path id="ptel" d="M15.54,11.31a.74.74,0,0,1,.44.86l-.75,3.25a.75.75,0,0,1-.73.58A14.5,14.5,0,0,1,0,1.5.75.75,0,0,1,.58.77L3.83,0a.76.76,0,0,1,.86.43L6.19,4A.77.77,0,0,1,6,4.83L4.08,6.38a11.64,11.64,0,0,0,5.54,5.54L11.17,10A.74.74,0,0,1,12,9.81l3.5,1.5Z"/></g></g></symbol><symbol viewBox="0 0 32 26" id="src--assets--svg--icons--twitter" xmlns="http://www.w3.org/2000/svg"><g id="qレイヤー_2" data-name="レイヤー 2"><g id="qレイヤー_1-2" data-name="レイヤー 1"><path id="qtwitter" d="M32,3.07a13.39,13.39,0,0,1-3.26,3.41v.85A18.69,18.69,0,0,1,28,12.59a18.63,18.63,0,0,1-2.33,5.06,19.46,19.46,0,0,1-3.76,4.28,17.07,17.07,0,0,1-5.24,3A19.14,19.14,0,0,1,10.07,26,18.22,18.22,0,0,1,0,23.33a10.23,10.23,0,0,0,1.56.11A12.83,12.83,0,0,0,9.7,20.33,6.28,6.28,0,0,1,5.91,19a6.42,6.42,0,0,1-2.32-3.24,7.47,7.47,0,0,0,1.22.11,7.3,7.3,0,0,0,1.75-.22A6.35,6.35,0,0,1,2.8,13.41,6.39,6.39,0,0,1,1.3,9.22V9.15a6.24,6.24,0,0,0,3,.81A6.21,6.21,0,0,1,1.33,4.52a6.39,6.39,0,0,1,.89-3.19,18.46,18.46,0,0,0,6,4.76,18.71,18.71,0,0,0,7.54,2,6.58,6.58,0,0,1-.15-1.51A6.33,6.33,0,0,1,17.5,1.93,6.27,6.27,0,0,1,22.15,0,6.45,6.45,0,0,1,27,2.07,13.21,13.21,0,0,0,31.11.48a6.22,6.22,0,0,1-2.89,3.63A13.35,13.35,0,0,0,32,3.07Z"/></g></g></symbol></svg>