<svg xmlns="http://www.w3.org/2000/svg" xmlns:xlink="http://www.w3.org/1999/xlink"><symbol viewBox="0 0 16 8.05" id="i-arrow-left"><g><path d="M3.72.14A.35.35 0 014.17 0a.39.39 0 01.27.39V3h11.13a.42.42 0 01.3.13.4.4 0 01.13.31v1.18a.41.41 0 01-.13.29.37.37 0 01-.3.15H4.44v2.56a.4.4 0 01-.27.4.37.37 0 01-.45-.11L.11 4.33A.48.48 0 010 4a.53.53 0 01.11-.31z"/></g></symbol><symbol viewBox="0 0 16 8.05" id="i-arrow-right"><g><path d="M12.28 7.91a.37.37 0 01-.45.11.4.4 0 01-.27-.4V5H.43a.38.38 0 01-.3-.13.38.38 0 01-.13-.28V3.43a.42.42 0 01.13-.29.39.39 0 01.3-.14h11.13V.43a.39.39 0 01.27-.43.35.35 0 01.45.1l3.61 3.58A.53.53 0 0116 4a.48.48 0 01-.11.3z"/></g></symbol><symbol viewBox="0 0 11.74 16" id="i-beginner"><g><path d="M5.87 3.75L2.4.4a1.41 1.41 0 00-2.4 1V10a2.1 2.1 0 00.65 1.5l4.23 4.1a1.42 1.42 0 002 0l4.24-4.1a2.14 2.14 0 00.62-1.5V1.42a1.42 1.42 0 00-.87-1.31A1.4 1.4 0 009.34.4zm4.8 6.08a.89.89 0 01-.27.63l-4.53 4.38V5.42l.86-.83L9.92 1.5a.44.44 0 01.75.31z"/></g></symbol><symbol viewBox="0 0 16 15.99" id="i-cart"><g><path d="M15.77 3.17a1 1 0 00-.8-.38H3.83l-.35-1.2A1.83 1.83 0 002.1.31L.72 0H.59A.61.61 0 000 .47a.6.6 0 00.1.45.59.59 0 00.37.26l1.38.29a.67.67 0 01.49.46l2.48 8.51h-.05a1.86 1.86 0 00-.7.72 2.06 2.06 0 00-.23.75v.36a2.09 2.09 0 00.14.56 2 2 0 00.71.86 2.2 2.2 0 00.56.26 1.58 1.58 0 00-.12.15 1.2 1.2 0 00.32 1.66 1.17 1.17 0 00.66.2 1.19 1.19 0 00.47-.09 1.21 1.21 0 00.52-.43 1.15 1.15 0 00.11-1.13 1.05 1.05 0 00-.21-.26h4.69l-.07.08a1.2 1.2 0 00.38 1.66 1.2 1.2 0 00.67.2 1.27 1.27 0 00.47-.09 1.21 1.21 0 00.52-.43 1.22 1.22 0 00.11-1.13 1.05 1.05 0 00-.17-.29h.3a.6.6 0 000-1.19H5.78a.8.8 0 01-.3-.06.74.74 0 01-.33-.28.71.71 0 01-.13-.4.73.73 0 01.16-.46 1 1 0 01.19-.17 1.25 1.25 0 01.29-.11l8.13-1.32a1.49 1.49 0 00.78-.39 1.39 1.39 0 00.43-.76L16 4a1.11 1.11 0 000-.19 1 1 0 00-.23-.64zm-8.19 6a.41.41 0 01-.51-.27L5.8 4.76a.41.41 0 01.78-.24l1.27 4.15a.41.41 0 01-.27.51zm2.45 0a.41.41 0 01-.51-.27L8.25 4.76A.41.41 0 119 4.52l1.3 4.15a.42.42 0 01-.3.51zm2.45 0a.41.41 0 01-.48-.26l-1.31-4.15a.42.42 0 01.31-.51.41.41 0 01.52.27l1.27 4.15a.42.42 0 01-.31.51z"/></g></symbol><symbol viewBox="0 0 16 16" id="i-circle-ex"><g><path d="M8 0a7.77 7.77 0 014 1.08A8 8 0 0114.92 4 7.77 7.77 0 0116 8a7.77 7.77 0 01-1.08 4A8 8 0 0112 14.92 7.77 7.77 0 018 16a7.77 7.77 0 01-4-1.08A8 8 0 011.08 12 7.77 7.77 0 010 8a7.77 7.77 0 011.08-4A8 8 0 014 1.08 7.77 7.77 0 018 0zm0 14.45a6.29 6.29 0 003.23-.87 6.46 6.46 0 002.35-2.35 6.43 6.43 0 000-6.46 6.46 6.46 0 00-2.35-2.35 6.43 6.43 0 00-6.46 0 6.46 6.46 0 00-2.35 2.35 6.43 6.43 0 000 6.46 6.46 6.46 0 002.35 2.35 6.29 6.29 0 003.23.87zm1.35-3.35a1.27 1.27 0 00-.4-.95 1.31 1.31 0 00-1.9 0 1.27 1.27 0 00-.4.95 1.3 1.3 0 00.4 1 1.33 1.33 0 001.9 0 1.3 1.3 0 00.4-1zM6.74 4.29A.36.36 0 016.82 4a.45.45 0 01.31-.11h1.74a.45.45 0 01.31.11.36.36 0 01.08.31l-.2 4.39a.6.6 0 01-.14.24.37.37 0 01-.24.06H7.32a.37.37 0 01-.24-.11.6.6 0 01-.14-.24z"/></g></symbol><symbol viewBox="0 0 8.89 16" id="i-facebook"><g><path d="M8.89 2.78H6.35c-.3 0-.64.4-.64.92v1.84h3.18l-.48 2.61h-2.7V16h-3V8.15H0V5.54h2.72V4a3.77 3.77 0 013.63-4h2.54z"/></g></symbol><symbol viewBox="0 0 32 31.81" id="i-facebook-circle"><g><path d="M18.5 31.81V20.62h3.73l.71-4.62H18.5v-3a2.31 2.31 0 012.61-2.5h2V6.56a25 25 0 00-3.59-.31c-3.65 0-6 2.21-6 6.23V16H9.44v4.62h4.06v11.19a16 16 0 115 0z"/></g></symbol><symbol viewBox="0 0 15.99 16" id="i-instagram"><g><path d="M8 1.44c2.14 0 2.39 0 3.23.05a4.33 4.33 0 011.49.27 2.67 2.67 0 011.52 1.52 4.32 4.32 0 01.27 1.48c0 .85.05 1.1.05 3.24s0 2.39-.05 3.23a4.26 4.26 0 01-.27 1.48 2.49 2.49 0 01-.6.92 2.57 2.57 0 01-.92.6 4.51 4.51 0 01-1.48.28H4.77a4.44 4.44 0 01-1.48-.28 2.37 2.37 0 01-.92-.6 2.41 2.41 0 01-.6-.91 4.58 4.58 0 01-.28-1.49V8 4.77a4.52 4.52 0 01.28-1.49 2.55 2.55 0 01.59-.92 2.66 2.66 0 01.92-.6 4.39 4.39 0 011.49-.27c.84 0 1.09-.05 3.23-.05zM8 0C5.83 0 5.56 0 4.7.05a5.85 5.85 0 00-1.94.37 4.08 4.08 0 00-1.42.92 4.17 4.17 0 00-.92 1.42A5.61 5.61 0 00.05 4.7C0 5.56 0 5.83 0 8s0 2.45.05 3.3a5.61 5.61 0 00.37 1.94 4 4 0 00.92 1.42 3.94 3.94 0 001.42.92A5.61 5.61 0 004.7 16H8c2.17 0 2.44 0 3.3-.05a5.61 5.61 0 001.94-.37 3.9 3.9 0 001.41-.92 3.81 3.81 0 00.92-1.42A5.82 5.82 0 0016 11.3V8 4.71a5.77 5.77 0 00-.38-1.94 3.63 3.63 0 00-.91-1.43 4 4 0 00-1.47-.92A6.12 6.12 0 0011.3.05C10.45 0 10.17 0 8 0zm0 3.89A4.11 4.11 0 1012.11 8 4.11 4.11 0 008 3.89zm0 6.78A2.67 2.67 0 1110.67 8 2.67 2.67 0 018 10.67zm4.27-7.9a1 1 0 101 1 1 1 0 00-1-1z"/></g></symbol><symbol viewBox="0 0 16 16" id="i-list"><g><path d="M12.63 0H3.37A3.37 3.37 0 000 3.37v9.26A3.37 3.37 0 003.37 16h9.26A3.37 3.37 0 0016 12.63V3.37A3.37 3.37 0 0012.63 0zm1.69 12.63a1.69 1.69 0 01-1.69 1.69H3.37a1.69 1.69 0 01-1.69-1.69V3.37a1.69 1.69 0 011.69-1.69h9.26a1.69 1.69 0 011.69 1.69zM3.37 5.89h.84v-.84h-.84zm8.84-.84H5.47a.42.42 0 00-.42.42.42.42 0 00.42.42h6.74a.42.42 0 00.42-.42.42.42 0 00-.42-.42zM3.37 8.42h.84v-.84h-.84zm8.84-.84H5.47a.42.42 0 000 .84h6.74a.42.42 0 000-.84zM3.37 11h.84v-.84h-.84zm8.84-.84H5.47a.42.42 0 00-.42.42.42.42 0 00.42.42h6.74a.42.42 0 00.42-.42.42.42 0 00-.42-.47z"/></g></symbol><symbol viewBox="0 0 14 16" id="i-lock"><g><path d="M13.5 16H.5a.5.5 0 01-.5-.5v-8A.5.5 0 01.5 7H2V5a5 5 0 0110 0v2h1.5a.5.5 0 01.5.5v8a.5.5 0 01-.5.5zM10 4.75A2.88 2.88 0 007 2a2.88 2.88 0 00-3 2.75V7h6z"/></g></symbol><symbol viewBox="0 0 16 12.3" id="i-mail"><g><path d="M16 1.81v8.71a1.82 1.82 0 01-.08.52l-5.25-4.58zM8 7a1 1 0 00.63-.24l7-6.09A1.75 1.75 0 0014.22 0H1.78A1.75 1.75 0 00.39.67l7 6.09A1 1 0 008 7zM0 1.81v8.71a1.82 1.82 0 00.08.48l5.25-4.54zM9.36 7.6a2.07 2.07 0 01-2.72 0l-.46-.41L.72 12a1.77 1.77 0 001.06.35h12.44a1.77 1.77 0 001.06-.35L9.82 7.19z"/></g></symbol><symbol viewBox="0 0 11.99 16" id="i-marker"><g><path d="M6 16a80.83 80.83 0 005.34-7.42 5.81 5.81 0 00-1.14-6.84 6 6 0 00-8.41 0A5.81 5.81 0 00.66 8.58 79.38 79.38 0 006 16zM6 2.33A3.62 3.62 0 112.38 6 3.62 3.62 0 016 2.33z"/></g></symbol><symbol viewBox="0 0 16 16" id="i-plus"><g><path d="M16 7.32V8.7H8.68V16H7.32V8.7H0V7.32h7.32V0h1.36v7.32z"/></g></symbol><symbol viewBox="0 0 16 15.22" id="i-star"><g><path d="M16 5.81l-4 3.9.94 5.51L8 12.62l-4.94 2.6L4 9.71l-4-3.9L5.53 5 8 0l2.47 5 5.53.8z"/></g></symbol><symbol viewBox="0 0 16 16" id="i-tag"><g><path d="M15.24 0H9.12a2.13 2.13 0 00-1.31.54L.22 8.13a.78.78 0 000 1.08l6.57 6.57a.78.78 0 001.08 0l7.59-7.59A2.13 2.13 0 0016 6.88V.76a.76.76 0 00-.76-.76zm-3.83 6.12a1.53 1.53 0 111.53-1.53 1.54 1.54 0 01-1.53 1.53z"/></g></symbol><symbol viewBox="0 0 16 16" id="i-tel"><g><path d="M15.54 11.31a.74.74 0 01.44.86l-.75 3.25a.75.75 0 01-.73.58A14.5 14.5 0 010 1.5.75.75 0 01.58.77L3.83 0a.76.76 0 01.86.43L6.19 4a.77.77 0 01-.19.83L4.08 6.38a11.64 11.64 0 005.54 5.54L11.17 10a.74.74 0 01.83-.19l3.5 1.5z"/></g></symbol><symbol viewBox="0 0 32 26" id="i-twitter"><g><path d="M32 3.07a13.39 13.39 0 01-3.26 3.41v.85a18.69 18.69 0 01-.74 5.26 18.63 18.63 0 01-2.33 5.06 19.46 19.46 0 01-3.76 4.28 17.07 17.07 0 01-5.24 3 19.14 19.14 0 01-6.6 1.07A18.22 18.22 0 010 23.33a10.23 10.23 0 001.56.11 12.83 12.83 0 008.14-3.11A6.28 6.28 0 015.91 19a6.42 6.42 0 01-2.32-3.24 7.47 7.47 0 001.22.11 7.3 7.3 0 001.75-.22 6.35 6.35 0 01-3.76-2.24 6.39 6.39 0 01-1.5-4.19v-.07a6.24 6.24 0 003 .81 6.21 6.21 0 01-2.97-5.44 6.39 6.39 0 01.89-3.19 18.46 18.46 0 006 4.76 18.71 18.71 0 007.54 2 6.58 6.58 0 01-.15-1.51 6.33 6.33 0 011.89-4.65A6.27 6.27 0 0122.15 0 6.45 6.45 0 0127 2.07 13.21 13.21 0 0031.11.48a6.22 6.22 0 01-2.89 3.63A13.35 13.35 0 0032 3.07z"/></g></symbol></svg>